<mxfile host="app.diagrams.net" modified="2023-04-04T11:46:29.341Z" agent="Mozilla/5.0 (Macintosh; Intel Mac OS X 10_15_7) AppleWebKit/605.1.15 (KHTML, like Gecko) Version/16.3 Safari/605.1.15" etag="vaeGDO4WvLBMQKdOpKxW" version="21.1.4" type="github">
  <diagram name="第 1 页" id="pRWkVDbd664qtxidzlrA">
    <mxGraphModel dx="1185" dy="1968" grid="1" gridSize="10" guides="1" tooltips="1" connect="1" arrows="1" fold="1" page="1" pageScale="1" pageWidth="827" pageHeight="1169" math="0" shadow="0">
      <root>
        <mxCell id="0" />
        <mxCell id="1" parent="0" />
        <mxCell id="_KfEID6iJmJdj_H5EwZi-1" value="" style="rounded=0;whiteSpace=wrap;html=1;" vertex="1" parent="1">
          <mxGeometry x="50" y="-67" width="1150" height="607" as="geometry" />
        </mxCell>
        <mxCell id="_KfEID6iJmJdj_H5EwZi-31" value="" style="group" vertex="1" connectable="0" parent="1">
          <mxGeometry x="90" y="-20" width="310" height="420" as="geometry" />
        </mxCell>
        <mxCell id="_KfEID6iJmJdj_H5EwZi-8" value="" style="group" vertex="1" connectable="0" parent="_KfEID6iJmJdj_H5EwZi-31">
          <mxGeometry width="140" height="200" as="geometry" />
        </mxCell>
        <mxCell id="_KfEID6iJmJdj_H5EwZi-6" value="" style="rounded=0;whiteSpace=wrap;html=1;" vertex="1" parent="_KfEID6iJmJdj_H5EwZi-8">
          <mxGeometry width="140" height="200" as="geometry" />
        </mxCell>
        <mxCell id="_KfEID6iJmJdj_H5EwZi-2" value="&lt;font style=&quot;font-size: 16px;&quot;&gt;执行器&lt;/font&gt;" style="rounded=0;whiteSpace=wrap;html=1;" vertex="1" parent="_KfEID6iJmJdj_H5EwZi-8">
          <mxGeometry x="20" y="40" width="100" height="30" as="geometry" />
        </mxCell>
        <mxCell id="_KfEID6iJmJdj_H5EwZi-3" value="&lt;font size=&quot;3&quot;&gt;任务模式&lt;/font&gt;" style="rounded=0;whiteSpace=wrap;html=1;" vertex="1" parent="_KfEID6iJmJdj_H5EwZi-8">
          <mxGeometry x="20" y="80" width="100" height="30" as="geometry" />
        </mxCell>
        <mxCell id="_KfEID6iJmJdj_H5EwZi-4" value="&lt;font size=&quot;3&quot;&gt;JobHandler&lt;/font&gt;" style="rounded=0;whiteSpace=wrap;html=1;" vertex="1" parent="_KfEID6iJmJdj_H5EwZi-8">
          <mxGeometry x="20" y="120" width="100" height="30" as="geometry" />
        </mxCell>
        <mxCell id="_KfEID6iJmJdj_H5EwZi-5" value="&lt;font size=&quot;3&quot;&gt;...&lt;/font&gt;" style="rounded=0;whiteSpace=wrap;html=1;" vertex="1" parent="_KfEID6iJmJdj_H5EwZi-8">
          <mxGeometry x="20" y="160" width="100" height="30" as="geometry" />
        </mxCell>
        <mxCell id="_KfEID6iJmJdj_H5EwZi-7" value="&lt;font style=&quot;font-size: 16px;&quot;&gt;任务管理&lt;/font&gt;" style="text;html=1;strokeColor=none;fillColor=none;align=center;verticalAlign=middle;whiteSpace=wrap;rounded=0;" vertex="1" parent="_KfEID6iJmJdj_H5EwZi-8">
          <mxGeometry x="35" y="5" width="70" height="30" as="geometry" />
        </mxCell>
        <mxCell id="_KfEID6iJmJdj_H5EwZi-9" value="" style="group" vertex="1" connectable="0" parent="_KfEID6iJmJdj_H5EwZi-31">
          <mxGeometry x="170" width="140" height="200" as="geometry" />
        </mxCell>
        <mxCell id="_KfEID6iJmJdj_H5EwZi-10" value="" style="rounded=0;whiteSpace=wrap;html=1;" vertex="1" parent="_KfEID6iJmJdj_H5EwZi-9">
          <mxGeometry width="140" height="200" as="geometry" />
        </mxCell>
        <mxCell id="_KfEID6iJmJdj_H5EwZi-11" value="&lt;font size=&quot;3&quot;&gt;注册方式&lt;/font&gt;" style="rounded=0;whiteSpace=wrap;html=1;" vertex="1" parent="_KfEID6iJmJdj_H5EwZi-9">
          <mxGeometry x="20" y="40" width="100" height="30" as="geometry" />
        </mxCell>
        <mxCell id="_KfEID6iJmJdj_H5EwZi-12" value="&lt;font size=&quot;3&quot;&gt;AppName&lt;/font&gt;" style="rounded=0;whiteSpace=wrap;html=1;" vertex="1" parent="_KfEID6iJmJdj_H5EwZi-9">
          <mxGeometry x="20" y="80" width="100" height="30" as="geometry" />
        </mxCell>
        <mxCell id="_KfEID6iJmJdj_H5EwZi-13" value="&lt;font size=&quot;3&quot;&gt;机器地址&lt;/font&gt;" style="rounded=0;whiteSpace=wrap;html=1;" vertex="1" parent="_KfEID6iJmJdj_H5EwZi-9">
          <mxGeometry x="20" y="120" width="100" height="30" as="geometry" />
        </mxCell>
        <mxCell id="_KfEID6iJmJdj_H5EwZi-14" value="&lt;font size=&quot;3&quot;&gt;...&lt;/font&gt;" style="rounded=0;whiteSpace=wrap;html=1;" vertex="1" parent="_KfEID6iJmJdj_H5EwZi-9">
          <mxGeometry x="20" y="160" width="100" height="30" as="geometry" />
        </mxCell>
        <mxCell id="_KfEID6iJmJdj_H5EwZi-15" value="&lt;font style=&quot;font-size: 16px;&quot;&gt;执行器管理&lt;/font&gt;" style="text;html=1;strokeColor=none;fillColor=none;align=center;verticalAlign=middle;whiteSpace=wrap;rounded=0;" vertex="1" parent="_KfEID6iJmJdj_H5EwZi-9">
          <mxGeometry x="28" y="5" width="85" height="30" as="geometry" />
        </mxCell>
        <mxCell id="_KfEID6iJmJdj_H5EwZi-16" value="" style="group" vertex="1" connectable="0" parent="_KfEID6iJmJdj_H5EwZi-31">
          <mxGeometry y="220" width="140" height="200" as="geometry" />
        </mxCell>
        <mxCell id="_KfEID6iJmJdj_H5EwZi-17" value="" style="rounded=0;whiteSpace=wrap;html=1;" vertex="1" parent="_KfEID6iJmJdj_H5EwZi-16">
          <mxGeometry width="140" height="200" as="geometry" />
        </mxCell>
        <mxCell id="_KfEID6iJmJdj_H5EwZi-18" value="&lt;font size=&quot;3&quot;&gt;调度日志&lt;/font&gt;" style="rounded=0;whiteSpace=wrap;html=1;" vertex="1" parent="_KfEID6iJmJdj_H5EwZi-16">
          <mxGeometry x="20" y="40" width="100" height="30" as="geometry" />
        </mxCell>
        <mxCell id="_KfEID6iJmJdj_H5EwZi-19" value="&lt;font size=&quot;3&quot;&gt;Rolling日志&lt;/font&gt;" style="rounded=0;whiteSpace=wrap;html=1;" vertex="1" parent="_KfEID6iJmJdj_H5EwZi-16">
          <mxGeometry x="20" y="80" width="100" height="30" as="geometry" />
        </mxCell>
        <mxCell id="_KfEID6iJmJdj_H5EwZi-20" value="&lt;font size=&quot;3&quot;&gt;版本日志&lt;/font&gt;" style="rounded=0;whiteSpace=wrap;html=1;" vertex="1" parent="_KfEID6iJmJdj_H5EwZi-16">
          <mxGeometry x="20" y="120" width="100" height="30" as="geometry" />
        </mxCell>
        <mxCell id="_KfEID6iJmJdj_H5EwZi-21" value="&lt;font size=&quot;3&quot;&gt;...&lt;/font&gt;" style="rounded=0;whiteSpace=wrap;html=1;" vertex="1" parent="_KfEID6iJmJdj_H5EwZi-16">
          <mxGeometry x="20" y="160" width="100" height="30" as="geometry" />
        </mxCell>
        <mxCell id="_KfEID6iJmJdj_H5EwZi-22" value="&lt;font style=&quot;font-size: 16px;&quot;&gt;日志管理&lt;/font&gt;" style="text;html=1;strokeColor=none;fillColor=none;align=center;verticalAlign=middle;whiteSpace=wrap;rounded=0;" vertex="1" parent="_KfEID6iJmJdj_H5EwZi-16">
          <mxGeometry x="35" y="5" width="70" height="30" as="geometry" />
        </mxCell>
        <mxCell id="_KfEID6iJmJdj_H5EwZi-24" value="" style="group" vertex="1" connectable="0" parent="_KfEID6iJmJdj_H5EwZi-31">
          <mxGeometry x="170" y="220" width="140" height="200" as="geometry" />
        </mxCell>
        <mxCell id="_KfEID6iJmJdj_H5EwZi-25" value="" style="rounded=0;whiteSpace=wrap;html=1;" vertex="1" parent="_KfEID6iJmJdj_H5EwZi-24">
          <mxGeometry width="140" height="200" as="geometry" />
        </mxCell>
        <mxCell id="_KfEID6iJmJdj_H5EwZi-26" value="&lt;font size=&quot;3&quot;&gt;运行报表&lt;/font&gt;" style="rounded=0;whiteSpace=wrap;html=1;" vertex="1" parent="_KfEID6iJmJdj_H5EwZi-24">
          <mxGeometry x="20" y="40" width="100" height="30" as="geometry" />
        </mxCell>
        <mxCell id="_KfEID6iJmJdj_H5EwZi-27" value="&lt;font size=&quot;3&quot;&gt;失败告警&lt;/font&gt;" style="rounded=0;whiteSpace=wrap;html=1;" vertex="1" parent="_KfEID6iJmJdj_H5EwZi-24">
          <mxGeometry x="20" y="80" width="100" height="30" as="geometry" />
        </mxCell>
        <mxCell id="_KfEID6iJmJdj_H5EwZi-28" value="&lt;font size=&quot;3&quot;&gt;任务依赖&lt;/font&gt;" style="rounded=0;whiteSpace=wrap;html=1;" vertex="1" parent="_KfEID6iJmJdj_H5EwZi-24">
          <mxGeometry x="20" y="120" width="100" height="30" as="geometry" />
        </mxCell>
        <mxCell id="_KfEID6iJmJdj_H5EwZi-29" value="&lt;font size=&quot;3&quot;&gt;...&lt;/font&gt;" style="rounded=0;whiteSpace=wrap;html=1;" vertex="1" parent="_KfEID6iJmJdj_H5EwZi-24">
          <mxGeometry x="20" y="160" width="100" height="30" as="geometry" />
        </mxCell>
        <mxCell id="_KfEID6iJmJdj_H5EwZi-30" value="&lt;font size=&quot;3&quot;&gt;其它&lt;/font&gt;" style="text;html=1;strokeColor=none;fillColor=none;align=center;verticalAlign=middle;whiteSpace=wrap;rounded=0;" vertex="1" parent="_KfEID6iJmJdj_H5EwZi-24">
          <mxGeometry x="35" y="5" width="70" height="30" as="geometry" />
        </mxCell>
        <mxCell id="_KfEID6iJmJdj_H5EwZi-32" value="&lt;font style=&quot;font-size: 16px;&quot;&gt;数据中心&lt;/font&gt;" style="rounded=0;whiteSpace=wrap;html=1;" vertex="1" parent="1">
          <mxGeometry x="90" y="410" width="310" height="40" as="geometry" />
        </mxCell>
        <mxCell id="_KfEID6iJmJdj_H5EwZi-33" value="&lt;font style=&quot;font-size: 16px;&quot;&gt;调度器&lt;/font&gt;" style="rounded=1;whiteSpace=wrap;html=1;" vertex="1" parent="1">
          <mxGeometry x="450" y="20" width="110" height="50" as="geometry" />
        </mxCell>
        <mxCell id="_KfEID6iJmJdj_H5EwZi-34" value="&lt;font size=&quot;3&quot;&gt;日志&lt;/font&gt;" style="rounded=1;whiteSpace=wrap;html=1;" vertex="1" parent="1">
          <mxGeometry x="450" y="110" width="110" height="50" as="geometry" />
        </mxCell>
        <mxCell id="_KfEID6iJmJdj_H5EwZi-35" value="&lt;font size=&quot;3&quot;&gt;回调服务&lt;/font&gt;" style="rounded=1;whiteSpace=wrap;html=1;" vertex="1" parent="1">
          <mxGeometry x="450" y="230" width="110" height="50" as="geometry" />
        </mxCell>
        <mxCell id="_KfEID6iJmJdj_H5EwZi-36" value="&lt;font size=&quot;3&quot;&gt;注册服务&lt;/font&gt;" style="rounded=1;whiteSpace=wrap;html=1;" vertex="1" parent="1">
          <mxGeometry x="450" y="330" width="110" height="50" as="geometry" />
        </mxCell>
        <mxCell id="_KfEID6iJmJdj_H5EwZi-37" value="&lt;font size=&quot;3&quot;&gt;执行器服务&lt;/font&gt;" style="rounded=1;whiteSpace=wrap;html=1;" vertex="1" parent="1">
          <mxGeometry x="650" y="20" width="230" height="50" as="geometry" />
        </mxCell>
        <mxCell id="_KfEID6iJmJdj_H5EwZi-43" value="" style="group" vertex="1" connectable="0" parent="1">
          <mxGeometry x="650" y="100" width="235" height="70" as="geometry" />
        </mxCell>
        <mxCell id="_KfEID6iJmJdj_H5EwZi-38" value="" style="rounded=0;whiteSpace=wrap;html=1;" vertex="1" parent="_KfEID6iJmJdj_H5EwZi-43">
          <mxGeometry width="235" height="70" as="geometry" />
        </mxCell>
        <mxCell id="_KfEID6iJmJdj_H5EwZi-39" value="&lt;font size=&quot;3&quot;&gt;日志服务&lt;/font&gt;" style="rounded=1;whiteSpace=wrap;html=1;" vertex="1" parent="_KfEID6iJmJdj_H5EwZi-43">
          <mxGeometry x="15" y="10" width="110" height="50" as="geometry" />
        </mxCell>
        <mxCell id="_KfEID6iJmJdj_H5EwZi-42" value="&lt;font style=&quot;font-size: 16px;&quot;&gt;日志文件&lt;/font&gt;" style="shape=note;whiteSpace=wrap;html=1;backgroundOutline=1;darkOpacity=0.05;" vertex="1" parent="_KfEID6iJmJdj_H5EwZi-43">
          <mxGeometry x="145" y="10" width="70" height="50" as="geometry" />
        </mxCell>
        <mxCell id="_KfEID6iJmJdj_H5EwZi-44" value="" style="group" vertex="1" connectable="0" parent="1">
          <mxGeometry x="651" y="215" width="245" height="80" as="geometry" />
        </mxCell>
        <mxCell id="_KfEID6iJmJdj_H5EwZi-52" value="" style="group" vertex="1" connectable="0" parent="_KfEID6iJmJdj_H5EwZi-44">
          <mxGeometry width="235" height="70" as="geometry" />
        </mxCell>
        <mxCell id="_KfEID6iJmJdj_H5EwZi-45" value="" style="rounded=0;whiteSpace=wrap;html=1;" vertex="1" parent="_KfEID6iJmJdj_H5EwZi-52">
          <mxGeometry width="235" height="70" as="geometry" />
        </mxCell>
        <mxCell id="_KfEID6iJmJdj_H5EwZi-46" value="&lt;font size=&quot;3&quot;&gt;回调线程&lt;/font&gt;" style="rounded=1;whiteSpace=wrap;html=1;" vertex="1" parent="_KfEID6iJmJdj_H5EwZi-52">
          <mxGeometry x="15" y="10" width="110" height="50" as="geometry" />
        </mxCell>
        <mxCell id="_KfEID6iJmJdj_H5EwZi-51" value="&lt;font style=&quot;font-size: 16px;&quot;&gt;调度结果&lt;/font&gt;" style="ellipse;shape=cloud;whiteSpace=wrap;html=1;" vertex="1" parent="_KfEID6iJmJdj_H5EwZi-52">
          <mxGeometry x="134" y="5" width="86" height="55" as="geometry" />
        </mxCell>
        <mxCell id="_KfEID6iJmJdj_H5EwZi-53" value="&lt;font size=&quot;3&quot;&gt;注册线程&lt;/font&gt;" style="rounded=1;whiteSpace=wrap;html=1;" vertex="1" parent="1">
          <mxGeometry x="652" y="330" width="230" height="50" as="geometry" />
        </mxCell>
        <mxCell id="_KfEID6iJmJdj_H5EwZi-56" value="" style="endArrow=classic;html=1;rounded=0;" edge="1" parent="1">
          <mxGeometry width="50" height="50" relative="1" as="geometry">
            <mxPoint x="560" y="44.5" as="sourcePoint" />
            <mxPoint x="650" y="44.5" as="targetPoint" />
          </mxGeometry>
        </mxCell>
        <mxCell id="_KfEID6iJmJdj_H5EwZi-57" value="" style="endArrow=classic;html=1;rounded=0;" edge="1" parent="1">
          <mxGeometry width="50" height="50" relative="1" as="geometry">
            <mxPoint x="650" y="134.5" as="sourcePoint" />
            <mxPoint x="560" y="134.5" as="targetPoint" />
          </mxGeometry>
        </mxCell>
        <mxCell id="_KfEID6iJmJdj_H5EwZi-58" value="" style="endArrow=classic;html=1;rounded=0;" edge="1" parent="1">
          <mxGeometry width="50" height="50" relative="1" as="geometry">
            <mxPoint x="560" y="254.5" as="sourcePoint" />
            <mxPoint x="650" y="254.5" as="targetPoint" />
          </mxGeometry>
        </mxCell>
        <mxCell id="_KfEID6iJmJdj_H5EwZi-59" value="" style="endArrow=classic;html=1;rounded=0;" edge="1" parent="1">
          <mxGeometry width="50" height="50" relative="1" as="geometry">
            <mxPoint x="650" y="354.5" as="sourcePoint" />
            <mxPoint x="560" y="354.5" as="targetPoint" />
          </mxGeometry>
        </mxCell>
        <mxCell id="_KfEID6iJmJdj_H5EwZi-60" value="&lt;font size=&quot;3&quot;&gt;自研RPC&lt;/font&gt;" style="rounded=1;whiteSpace=wrap;html=1;" vertex="1" parent="1">
          <mxGeometry x="930" y="330" width="200" height="50" as="geometry" />
        </mxCell>
        <mxCell id="_KfEID6iJmJdj_H5EwZi-61" value="" style="group" vertex="1" connectable="0" parent="1">
          <mxGeometry x="940" y="-20" width="180" height="320" as="geometry" />
        </mxCell>
        <mxCell id="_KfEID6iJmJdj_H5EwZi-62" value="" style="rounded=0;whiteSpace=wrap;html=1;" vertex="1" parent="_KfEID6iJmJdj_H5EwZi-61">
          <mxGeometry y="20" width="180" height="288" as="geometry" />
        </mxCell>
        <mxCell id="_KfEID6iJmJdj_H5EwZi-68" value="&lt;font style=&quot;font-size: 16px;&quot;&gt;调度请求&lt;/font&gt;" style="rounded=1;whiteSpace=wrap;html=1;" vertex="1" parent="_KfEID6iJmJdj_H5EwZi-61">
          <mxGeometry x="25.71" y="40" width="128.57" height="50" as="geometry" />
        </mxCell>
        <mxCell id="_KfEID6iJmJdj_H5EwZi-69" value="&lt;font size=&quot;3&quot;&gt;JobHandler&lt;/font&gt;" style="rounded=1;whiteSpace=wrap;html=1;" vertex="1" parent="_KfEID6iJmJdj_H5EwZi-61">
          <mxGeometry x="25.71" y="130" width="128.57" height="54" as="geometry" />
        </mxCell>
        <mxCell id="_KfEID6iJmJdj_H5EwZi-70" value="&lt;font size=&quot;3&quot;&gt;任务线程&lt;/font&gt;" style="rounded=1;whiteSpace=wrap;html=1;" vertex="1" parent="_KfEID6iJmJdj_H5EwZi-61">
          <mxGeometry x="25.71" y="240" width="128.57" height="54" as="geometry" />
        </mxCell>
        <mxCell id="_KfEID6iJmJdj_H5EwZi-72" value="" style="endArrow=classic;html=1;rounded=0;" edge="1" parent="1">
          <mxGeometry width="50" height="50" relative="1" as="geometry">
            <mxPoint x="880" y="44.5" as="sourcePoint" />
            <mxPoint x="940" y="44.5" as="targetPoint" />
          </mxGeometry>
        </mxCell>
        <mxCell id="_KfEID6iJmJdj_H5EwZi-74" value="" style="endArrow=classic;html=1;rounded=0;" edge="1" parent="1">
          <mxGeometry width="50" height="50" relative="1" as="geometry">
            <mxPoint x="935" y="134.5" as="sourcePoint" />
            <mxPoint x="885" y="134.5" as="targetPoint" />
          </mxGeometry>
        </mxCell>
        <mxCell id="_KfEID6iJmJdj_H5EwZi-75" value="" style="endArrow=classic;html=1;rounded=0;" edge="1" parent="1">
          <mxGeometry width="50" height="50" relative="1" as="geometry">
            <mxPoint x="937" y="260" as="sourcePoint" />
            <mxPoint x="887" y="260" as="targetPoint" />
          </mxGeometry>
        </mxCell>
        <mxCell id="_KfEID6iJmJdj_H5EwZi-76" value="&lt;font style=&quot;font-size: 19px;&quot;&gt;调度中心&lt;/font&gt;" style="text;html=1;strokeColor=none;fillColor=none;align=center;verticalAlign=middle;whiteSpace=wrap;rounded=0;" vertex="1" parent="1">
          <mxGeometry x="175" y="470" width="140" height="50" as="geometry" />
        </mxCell>
        <mxCell id="_KfEID6iJmJdj_H5EwZi-77" value="&lt;font size=&quot;4&quot;&gt;执行器&lt;/font&gt;" style="text;html=1;strokeColor=none;fillColor=none;align=center;verticalAlign=middle;whiteSpace=wrap;rounded=0;" vertex="1" parent="1">
          <mxGeometry x="819" y="469" width="140" height="50" as="geometry" />
        </mxCell>
      </root>
    </mxGraphModel>
  </diagram>
</mxfile>
